<svg width="50" height="50" viewBox="0 0 50 50" fill="none" xmlns="http://www.w3.org/2000/svg">
<path d="M35.4339 38.0515C35.0085 40.5184 31.8534 41.0205 30.4662 38.992C30.4009 38.8976 27.3394 34.4727 27.5343 34.7545V46.7596H2.64062V32.0438C2.64062 28.2822 5.69426 25.2285 9.45593 25.2285H23.9606C25.8637 25.2285 27.6671 26.0362 28.9505 27.4191C29.428 27.8967 29.1881 27.618 34.9913 36.0269C35.4229 36.6354 35.5556 37.3655 35.4339 38.0515Z" fill="#28356A"/>
<path d="M9.45593 25.2285H11.3036C7.54191 25.2285 4.48827 28.2822 4.48827 32.0438V46.7596H2.64062V32.0438C2.64062 28.2822 5.69426 25.2285 9.45593 25.2285Z" fill="#28356A"/>
<path d="M19.7638 22.375V25.3617C19.7638 27.4247 18.0857 29.0951 16.0381 29.0951C14.0297 29.0951 12.3047 27.4844 12.3047 25.3617V22.375H19.7638Z" fill="#FFAF93"/>
<path d="M22.8713 8.73828V17.8293C22.8713 21.6036 19.8116 24.6633 16.0372 24.6633C12.2629 24.6633 9.20312 21.6036 9.20312 17.8293V8.73828H22.8713Z" fill="#FFAF93"/>
<path d="M22.8666 8.73633C22.7749 17.5202 23.0302 17.9136 22.6895 19.3515C22.0045 22.3998 19.2871 24.663 16.0387 24.663C12.264 24.663 9.20312 21.607 9.20312 17.8274V8.73633H22.8666Z" fill="#FFAF93"/>
<path d="M9.20349 12.3027V16.3724H7.50391V12.9074L9.20349 12.3027Z" fill="#8B4F4F"/>
<path d="M22.8711 12.332V16.4017H24.5707V12.7815L22.8711 12.332Z" fill="#AB604B"/>
<path d="M25.2736 16.0708C25.2736 17.4106 24.199 18.485 22.8594 18.485V13.6699C24.199 13.6699 25.2736 14.7444 25.2736 16.0708Z" fill="#FFAF93"/>
<path d="M23.5035 13.7667C23.2974 13.71 23.0843 13.6699 22.8594 13.6699V18.4851C23.0843 18.4851 23.2974 18.4449 23.5035 18.3882V13.7667Z" fill="#EE8778"/>
<path d="M14.5595 27.9777L14.5886 28.0069C15.1335 28.5518 15.8341 28.9312 16.632 29.0383C14.5328 29.4585 12.3021 27.766 12.3021 25.3603V23.5506C10.2762 22.2163 9.20793 20.0575 9.20793 17.8293V18.4909C7.86518 18.4909 6.78516 17.4108 6.78516 16.0681C6.78516 14.7911 7.8146 13.6745 9.20793 13.6745V11.7577C9.20793 10.4928 10.035 9.42251 11.1928 9.0625V17.8293C11.1928 21.2895 13.7459 24.1089 16.992 24.5819C18.0039 24.4554 18.9477 24.0857 19.765 23.5602V24.7376C18.3841 25.4701 16.8287 25.7423 15.659 25.6522C14.4232 25.5938 13.6935 27.102 14.5595 27.9777Z" fill="#EE8778"/>
<path d="M16.5779 16.9101V17.8859C16.5779 18.2172 16.3097 18.4855 15.9784 18.4855C15.6471 18.4855 15.3789 18.2172 15.3789 17.8859V16.9101C15.3789 16.5788 15.6471 16.3105 15.9784 16.3105C16.3131 16.3105 16.5779 16.583 16.5779 16.9101Z" fill="#EE8778"/>
<path d="M13.8945 20.0215C14.1084 21.005 14.9828 21.742 16.0304 21.742C17.0779 21.742 17.9524 21.005 18.1662 20.0215L13.8945 20.0215Z" fill="#EE8778"/>
<path d="M14.0989 14.51C13.9609 13.8757 13.397 13.4004 12.7213 13.4004C12.0457 13.4004 11.4817 13.8757 11.3438 14.51H14.0989Z" fill="#312E4B"/>
<path d="M20.7239 14.51C20.5859 13.8757 20.022 13.4004 19.3463 13.4004C18.6707 13.4004 18.1067 13.8757 17.9688 14.51H20.7239Z" fill="#312E4B"/>
<path d="M2.64062 35.9258H8.4378V46.7579H2.64062V35.9258Z" fill="#FFAF93"/>
<path d="M2.64062 35.9258H4.48874V46.7579H2.64062V35.9258Z" fill="#EE8778"/>
<path d="M40.372 28.6236L35.2972 38.7352C34.6251 40.0888 32.9829 40.6413 31.6293 39.9691C30.2758 39.2969 29.7234 37.6547 30.3955 36.3011L35.4703 26.1895L40.372 28.6236Z" fill="#FFAF93"/>
<path d="M42.1653 27.2142C41.2563 29.0426 39.0471 29.7857 37.2268 28.8814C35.4064 27.9772 34.6575 25.7648 35.5665 23.9364C36.4719 22.1154 38.6884 21.376 40.5088 22.2802C42.3291 23.1844 43.0707 25.3932 42.1653 27.2142Z" fill="#FFAF93"/>
<path d="M41.0561 28.5339C39.9809 29.3344 38.5078 29.5126 37.2272 28.8765C35.4117 27.9747 34.6622 25.7623 35.5691 23.938C36.2101 22.6488 37.4999 21.9044 38.8398 21.8926C36.6807 23.4487 36.8709 26.8998 39.3955 28.1539C39.9304 28.4196 40.4935 28.5476 41.0561 28.5339Z" fill="#EE8778"/>
<path d="M9.20225 12.9872V12.2489C9.20225 11.9814 9.39939 11.7595 9.66331 11.7163C10.5082 11.5779 12.273 11.0793 12.8724 9.30542L13.4585 9.59223C15.0482 10.3702 15.8566 9.92896 22.8709 10.0534V12.8071L24.5832 12.8071V9.58308C25.6024 8.56381 26.1751 7.18137 26.1751 5.7399V4.37228C26.1751 3.7502 25.6707 3.24596 25.0486 3.24609L14.7275 3.24828C10.7399 3.24916 7.50781 6.48199 7.50781 10.4696V12.9872H9.20225Z" fill="#AB604B"/>
<path d="M11.1352 4.21094C8.96949 5.45767 7.50781 7.79019 7.50781 10.4685V12.9861H9.20223V12.2478C9.20223 11.9803 9.39938 11.7584 9.66333 11.7152C10.0351 11.6543 10.585 11.5148 11.1352 11.2365V4.21094Z" fill="#8B4F4F"/>
<path d="M47.3613 10.0972V15.3141C47.3613 20.5642 44.0707 25.3842 39.0605 26.9965C39.0026 27.013 38.9365 27.0213 38.8621 27.0543C38.7959 27.0213 38.7298 27.013 38.6554 26.9965C33.6451 25.3842 30.3711 20.5642 30.3711 15.3141V10.0972C30.3711 9.70864 30.6108 9.36136 30.9664 9.20427L38.4817 6.02948C38.7215 5.93028 38.9943 5.93028 39.2341 6.02948L46.766 9.20427C47.1215 9.36136 47.3613 9.70864 47.3613 10.0972Z" fill="#65B9FF"/>
<path d="M39.8578 26.711C38.8286 27.1152 39.0167 26.9805 38.8578 27.06C38.7917 27.0222 38.7257 27.0129 38.6502 27.0034C33.6407 25.3902 30.3672 20.5694 30.3672 15.3147V10.0977C30.3672 9.71094 30.603 9.36189 30.9615 9.21097L38.4804 6.03167C38.7162 5.93736 38.9898 5.93736 39.2351 6.03167L39.8578 6.29585L32.9615 9.21097C32.6125 9.36189 32.3672 9.71094 32.3672 10.0977V15.3147C32.3672 20.2864 35.2917 24.8619 39.8578 26.711Z" fill="#3E7FFF"/>
<path d="M45.3545 11.1948V15.3761C45.3545 19.5654 42.7814 23.3623 39.0472 24.7979C38.9217 24.845 38.7883 24.845 38.6628 24.7979C34.9364 23.3623 32.3711 19.5654 32.3711 15.3761V11.1948C32.3711 10.9908 32.4966 10.8103 32.6849 10.7319C38.8567 8.18104 38.6685 8.05309 39.055 8.19801L45.0407 10.7319C45.229 10.8103 45.3545 10.9908 45.3545 11.1948Z" fill="#DEDDFF"/>
<path d="M40.1812 16.9793L40.7313 19.0947C40.8516 19.5573 40.5025 20.0088 40.0246 20.0088H37.7078C37.2299 20.0088 36.8807 19.5573 37.001 19.0947L37.5512 16.9793C37.0075 16.5798 36.6523 15.9362 36.6523 15.2038C36.6523 13.972 37.6399 12.9844 38.8718 12.9844C40.0924 12.9844 41.0801 13.972 41.0801 15.2038C41.0801 15.9362 40.725 16.5909 40.1812 16.9793Z" fill="#5B5E8B"/>
<path d="M38.6146 20.0087H37.7089C37.2279 20.0087 36.8787 19.5559 37.0014 19.0937L37.5486 16.9805C37.0014 16.5842 36.6523 15.9332 36.6523 15.2069C36.6523 13.971 37.643 12.9805 38.8694 12.9805C39.0203 12.9805 39.1713 12.9993 39.3127 13.0276C38.3033 13.2446 37.558 14.1314 37.558 15.2069C37.558 15.9332 37.9071 16.5842 38.4543 16.9805L37.9071 19.0937C37.7844 19.5559 38.1335 20.0087 38.6146 20.0087Z" fill="#312E4B"/>
</svg>
